<svg xmlns="http://www.w3.org/2000/svg" version="1.1" xmlns:xlink="http://www.w3.org/1999/xlink" xmlns:svgjs="http://svgjs.dev/svgjs" width="350  " height="50" viewBox="0 0 1000 232"><g transform="matrix(1,0,0,1,-0.6060606060606233,-0.5619782966707163)"><svg viewBox="0 0 396 92" data-background-color="#003c47" preserveAspectRatio="xMidYMid meet" height="232" width="1000" xmlns="http://www.w3.org/2000/svg" xmlns:xlink="http://www.w3.org/1999/xlink"><g id="tight-bounds" transform="matrix(1,0,0,1,0.2400000000000091,0.22285346247286952)"><svg viewBox="0 0 395.52 91.55429307505428" height="91.55429307505428" width="395.52"><g><svg viewBox="0 0 397.4976 92.01206454042955" height="91.55429307505428" width="395.52"><g><rect width="397.4976" height="1.6666344289464967" x="0" y="51.71735935563521" fill="#ffffff" opacity="1" stroke-width="0" stroke="transparent" fill-opacity="1" class="rect-o-0" data-fill-palette-color="secondary" rx="1%" id="o-0" data-palette-color="#ffffff"></rect></g><g transform="matrix(1,0,0,1,0.9887999999999693,57.74691113784478)"><svg viewBox="0 0 395.52000000000004 34.26515340258475" height="34.26515340258475" width="395.52000000000004"><g id="textblocktransform"><svg viewBox="0 0 395.52000000000004 34.26515340258475" height="34.26515340258475" width="395.52000000000004" id="textblock"><g><svg viewBox="0 0 395.52000000000004 18.480986433449736" height="18.480986433449736" width="395.52000000000004"><g transform="matrix(1,0,0,1,0,0)"><svg width="395.52000000000004" viewBox="4.489999771118164 -36.25 789.9500122070312 36.90999984741211" height="18.480986433449736" data-palette-color="#ffffff"><path d="M26.54 0L19.6 0 11.01-28 10.79-28Q11.25-19.46 11.25-16.6L11.25-16.6 11.25 0 4.49 0 4.49-35.69 14.79-35.69 23.24-8.4 23.39-8.4 32.35-35.69 42.65-35.69 42.65 0 35.6 0 35.6-16.89Q35.6-18.09 35.63-19.65 35.67-21.22 35.96-27.95L35.96-27.95 35.74-27.95 26.54 0ZM59.2 0L51.63 0 51.63-35.69 59.2-35.69 59.2 0ZM89.25-9.91L89.25-9.91Q89.25-5.08 85.77-2.29 82.29 0.49 76.09 0.49L76.09 0.49Q70.38 0.49 65.99-1.66L65.99-1.66 65.99-8.69Q69.6-7.08 72.1-6.42 74.6-5.76 76.68-5.76L76.68-5.76Q79.17-5.76 80.5-6.71 81.83-7.67 81.83-9.55L81.83-9.55Q81.83-10.6 81.25-11.41 80.66-12.23 79.52-12.99 78.39-13.75 74.9-15.41L74.9-15.41Q71.63-16.94 69.99-18.36 68.35-19.78 67.38-21.66 66.4-23.54 66.4-26.05L66.4-26.05Q66.4-30.79 69.61-33.5 72.82-36.21 78.49-36.21L78.49-36.21Q81.27-36.21 83.8-35.55 86.32-34.89 89.08-33.69L89.08-33.69 86.64-27.81Q83.78-28.98 81.92-29.44 80.05-29.91 78.24-29.91L78.24-29.91Q76.09-29.91 74.95-28.91 73.8-27.91 73.8-26.29L73.8-26.29Q73.8-25.29 74.26-24.55 74.73-23.8 75.74-23.11 76.75-22.41 80.54-20.61L80.54-20.61Q85.54-18.21 87.4-15.81 89.25-13.4 89.25-9.91ZM116.79-9.91L116.79-9.91Q116.79-5.08 113.31-2.29 109.83 0.49 103.63 0.49L103.63 0.49Q97.92 0.49 93.52-1.66L93.52-1.66 93.52-8.69Q97.14-7.08 99.64-6.42 102.14-5.76 104.22-5.76L104.22-5.76Q106.71-5.76 108.04-6.71 109.37-7.67 109.37-9.55L109.37-9.55Q109.37-10.6 108.78-11.41 108.2-12.23 107.06-12.99 105.93-13.75 102.43-15.41L102.43-15.41Q99.16-16.94 97.53-18.36 95.89-19.78 94.91-21.66 93.94-23.54 93.94-26.05L93.94-26.05Q93.94-30.79 97.15-33.5 100.36-36.21 106.02-36.21L106.02-36.21Q108.81-36.21 111.33-35.55 113.86-34.89 116.62-33.69L116.62-33.69 114.18-27.81Q111.32-28.98 109.45-29.44 107.59-29.91 105.78-29.91L105.78-29.91Q103.63-29.91 102.48-28.91 101.34-27.91 101.34-26.29L101.34-26.29Q101.34-25.29 101.8-24.55 102.26-23.8 103.28-23.11 104.29-22.41 108.07-20.61L108.07-20.61Q113.08-18.21 114.93-15.81 116.79-13.4 116.79-9.91ZM121.62-3.49L121.62-3.49Q121.62-5.54 122.72-6.59 123.82-7.64 125.92-7.64L125.92-7.64Q127.94-7.64 129.05-6.57 130.17-5.49 130.17-3.49L130.17-3.49Q130.17-1.56 129.04-0.45 127.92 0.66 125.92 0.66L125.92 0.66Q123.87 0.66 122.74-0.43 121.62-1.51 121.62-3.49ZM166.66-19.9L179.21 0 170.61 0 161.26-15.04 158.07-12.74 158.07 0 150.5 0 150.5-35.69 158.07-35.69 158.07-19.36 161.04-23.56 170.71-35.69 179.11-35.69 166.66-19.9ZM213.7 0L205.55 0 202.96-8.5 189.95-8.5 187.36 0 179.21 0 191.8-35.84 201.06-35.84 213.7 0ZM191.85-14.84L201.15-14.84Q197.57-26.39 197.11-27.91 196.66-29.42 196.47-30.3L196.47-30.3Q195.66-27.17 191.85-14.84L191.85-14.84ZM231.96-29.39L231.96 0 224.39 0 224.39-29.39 214.7-29.39 214.7-35.69 241.65-35.69 241.65-29.39 231.96-29.39ZM267.7-6.25L267.7 0 247.15 0 247.15-35.69 267.7-35.69 267.7-29.49 254.71-29.49 254.71-21.66 266.8-21.66 266.8-15.45 254.71-15.45 254.71-6.25 267.7-6.25ZM297.19 0L275.15 0 275.15-35.69 282.71-35.69 282.71-6.25 297.19-6.25 297.19 0ZM307.1-35.69L314.5-21 321.95-35.69 330.1-35.69 318.26-13.89 318.26 0 310.74 0 310.74-13.65 298.9-35.69 307.1-35.69ZM366.25-35.69L366.25 0 356.64 0 341.11-27 340.89-27Q341.35-19.85 341.35-16.8L341.35-16.8 341.35 0 334.59 0 334.59-35.69 344.14-35.69 359.64-8.96 359.81-8.96Q359.44-15.92 359.44-18.8L359.44-18.8 359.44-35.69 366.25-35.69ZM373.99-35.69L380.8-35.69 379.8-22.8 374.99-22.8 373.99-35.69ZM409.61-9.91L409.61-9.91Q409.61-5.08 406.13-2.29 402.65 0.49 396.45 0.49L396.45 0.49Q390.74 0.49 386.34-1.66L386.34-1.66 386.34-8.69Q389.96-7.08 392.46-6.42 394.96-5.76 397.04-5.76L397.04-5.76Q399.53-5.76 400.86-6.71 402.19-7.67 402.19-9.55L402.19-9.55Q402.19-10.6 401.6-11.41 401.01-12.23 399.88-12.99 398.74-13.75 395.25-15.41L395.25-15.41Q391.98-16.94 390.35-18.36 388.71-19.78 387.73-21.66 386.76-23.54 386.76-26.05L386.76-26.05Q386.76-30.79 389.97-33.5 393.18-36.21 398.84-36.21L398.84-36.21Q401.63-36.21 404.15-35.55 406.68-34.89 409.44-33.69L409.44-33.69 407-27.81Q404.14-28.98 402.27-29.44 400.4-29.91 398.6-29.91L398.6-29.91Q396.45-29.91 395.3-28.91 394.15-27.91 394.15-26.29L394.15-26.29Q394.15-25.29 394.62-24.55 395.08-23.8 396.1-23.11 397.11-22.41 400.89-20.61L400.89-20.61Q405.9-18.21 407.75-15.81 409.61-13.4 409.61-9.91ZM450.13-9.91L450.13-9.91Q450.13-5.08 446.65-2.29 443.17 0.49 436.97 0.49L436.97 0.49Q431.26 0.49 426.86-1.66L426.86-1.66 426.86-8.69Q430.48-7.08 432.98-6.42 435.48-5.76 437.56-5.76L437.56-5.76Q440.05-5.76 441.38-6.71 442.71-7.67 442.71-9.55L442.71-9.55Q442.71-10.6 442.12-11.41 441.54-12.23 440.4-12.99 439.27-13.75 435.78-15.41L435.78-15.41Q432.5-16.94 430.87-18.36 429.23-19.78 428.26-21.66 427.28-23.54 427.28-26.05L427.28-26.05Q427.28-30.79 430.49-33.5 433.7-36.21 439.36-36.21L439.36-36.21Q442.15-36.21 444.67-35.55 447.2-34.89 449.96-33.69L449.96-33.69 447.52-27.81Q444.66-28.98 442.79-29.44 440.93-29.91 439.12-29.91L439.12-29.91Q436.97-29.91 435.82-28.91 434.68-27.91 434.68-26.29L434.68-26.29Q434.68-25.29 435.14-24.55 435.6-23.8 436.62-23.11 437.63-22.41 441.42-20.61L441.42-20.61Q446.42-18.21 448.28-15.81 450.13-13.4 450.13-9.91ZM500.45-35.69L491.36 0 482.75 0 477.91-18.75Q477.64-19.75 477-22.89 476.35-26.03 476.25-27.1L476.25-27.1Q476.1-25.78 475.52-22.86 474.93-19.95 474.62-18.7L474.62-18.7 469.81 0 461.21 0 452.11-35.69 459.55-35.69 464.12-16.21Q465.31-10.82 465.85-6.86L465.85-6.86Q466-8.25 466.52-11.17 467.05-14.09 467.51-15.7L467.51-15.7 472.71-35.69 479.86-35.69 485.06-15.7Q485.41-14.36 485.92-11.6 486.43-8.84 486.7-6.86L486.7-6.86Q486.94-8.76 487.48-11.61 488.02-14.45 488.46-16.21L488.46-16.21 493-35.69 500.45-35.69ZM512.5 0L504.94 0 504.94-35.69 512.5-35.69 512.5 0ZM543.53 0L536.6 0 528-28 527.78-28Q528.25-19.46 528.25-16.6L528.25-16.6 528.25 0 521.49 0 521.49-35.69 531.79-35.69 540.24-8.4 540.38-8.4 549.34-35.69 559.64-35.69 559.64 0 552.59 0 552.59-16.89Q552.59-18.09 552.63-19.65 552.66-21.22 552.96-27.95L552.96-27.95 552.74-27.95 543.53 0ZM603.66 0L581.61 0 581.61-35.69 589.18-35.69 589.18-6.25 603.66-6.25 603.66 0ZM630.41-6.25L630.41 0 609.86 0 609.86-35.69 630.41-35.69 630.41-29.49 617.43-29.49 617.43-21.66 629.51-21.66 629.51-15.45 617.43-15.45 617.43-6.25 630.41-6.25ZM658.93-9.91L658.93-9.91Q658.93-5.08 655.45-2.29 651.97 0.49 645.77 0.49L645.77 0.49Q640.05 0.49 635.66-1.66L635.66-1.66 635.66-8.69Q639.27-7.08 641.78-6.42 644.28-5.76 646.35-5.76L646.35-5.76Q648.84-5.76 650.17-6.71 651.5-7.67 651.5-9.55L651.5-9.55Q651.5-10.6 650.92-11.41 650.33-12.23 649.2-12.99 648.06-13.75 644.57-15.41L644.57-15.41Q641.3-16.94 639.66-18.36 638.03-19.78 637.05-21.66 636.08-23.54 636.08-26.05L636.08-26.05Q636.08-30.79 639.29-33.5 642.5-36.21 648.16-36.21L648.16-36.21Q650.94-36.21 653.47-35.55 656-34.89 658.76-33.69L658.76-33.69 656.31-27.81Q653.46-28.98 651.59-29.44 649.72-29.91 647.92-29.91L647.92-29.91Q645.77-29.91 644.62-28.91 643.47-27.91 643.47-26.29L643.47-26.29Q643.47-25.29 643.94-24.55 644.4-23.8 645.41-23.11 646.43-22.41 650.21-20.61L650.21-20.61Q655.22-18.21 657.07-15.81 658.93-13.4 658.93-9.91ZM686.46-9.91L686.46-9.91Q686.46-5.08 682.98-2.29 679.51 0.49 673.3 0.49L673.3 0.49Q667.59 0.49 663.2-1.66L663.2-1.66 663.2-8.69Q666.81-7.08 669.31-6.42 671.81-5.76 673.89-5.76L673.89-5.76Q676.38-5.76 677.71-6.71 679.04-7.67 679.04-9.55L679.04-9.55Q679.04-10.6 678.46-11.41 677.87-12.23 676.73-12.99 675.6-13.75 672.11-15.41L672.11-15.41Q668.84-16.94 667.2-18.36 665.56-19.78 664.59-21.66 663.61-23.54 663.61-26.05L663.61-26.05Q663.61-30.79 666.82-33.5 670.03-36.21 675.7-36.21L675.7-36.21Q678.48-36.21 681.01-35.55 683.53-34.89 686.29-33.69L686.29-33.69 683.85-27.81Q680.99-28.98 679.13-29.44 677.26-29.91 675.45-29.91L675.45-29.91Q673.3-29.91 672.16-28.91 671.01-27.91 671.01-26.29L671.01-26.29Q671.01-25.29 671.47-24.55 671.94-23.8 672.95-23.11 673.96-22.41 677.75-20.61L677.75-20.61Q682.75-18.21 684.61-15.81 686.46-13.4 686.46-9.91ZM725.33-17.9L725.33-17.9Q725.33-9.03 720.93-4.27 716.54 0.49 708.34 0.49L708.34 0.49Q700.13 0.49 695.74-4.27 691.34-9.03 691.34-17.94L691.34-17.94Q691.34-26.86 695.75-31.56 700.16-36.25 708.38-36.25L708.38-36.25Q716.61-36.25 720.97-31.52 725.33-26.78 725.33-17.9ZM699.28-17.9L699.28-17.9Q699.28-11.91 701.55-8.89 703.82-5.86 708.34-5.86L708.34-5.86Q717.39-5.86 717.39-17.9L717.39-17.9Q717.39-29.96 708.38-29.96L708.38-29.96Q703.87-29.96 701.57-26.92 699.28-23.88 699.28-17.9ZM764.39-35.69L764.39 0 754.77 0 739.24-27 739.02-27Q739.49-19.85 739.49-16.8L739.49-16.8 739.49 0 732.72 0 732.72-35.69 742.27-35.69 757.77-8.96 757.94-8.96Q757.58-15.92 757.58-18.8L757.58-18.8 757.58-35.69 764.39-35.69ZM794.44-9.91L794.44-9.91Q794.44-5.08 790.96-2.29 787.48 0.49 781.28 0.49L781.28 0.49Q775.57 0.49 771.17-1.66L771.17-1.66 771.17-8.69Q774.79-7.08 777.29-6.42 779.79-5.76 781.87-5.76L781.87-5.76Q784.36-5.76 785.69-6.71 787.02-7.67 787.02-9.55L787.02-9.55Q787.02-10.6 786.43-11.41 785.85-12.23 784.71-12.99 783.58-13.75 780.08-15.41L780.08-15.41Q776.81-16.94 775.18-18.36 773.54-19.78 772.56-21.66 771.59-23.54 771.59-26.05L771.59-26.05Q771.59-30.79 774.8-33.5 778.01-36.21 783.67-36.21L783.67-36.21Q786.46-36.21 788.98-35.55 791.51-34.89 794.27-33.69L794.27-33.69 791.83-27.81Q788.97-28.98 787.1-29.44 785.24-29.91 783.43-29.91L783.43-29.91Q781.28-29.91 780.13-28.91 778.99-27.91 778.99-26.29L778.99-26.29Q778.99-25.29 779.45-24.55 779.91-23.8 780.93-23.11 781.94-22.41 785.72-20.61L785.72-20.61Q790.73-18.21 792.58-15.81 794.44-13.4 794.44-9.91Z" opacity="1" transform="matrix(1,0,0,1,0,0)" fill="#ffffff" class="wordmark-text-0" data-fill-palette-color="primary" id="text-0"></path></svg></g></svg></g><g transform="matrix(1,0,0,1,0,22.843903786712815)"><svg viewBox="0 0 395.52000000000004 11.421249615871936" height="11.421249615871936" width="395.52000000000004"><g transform="matrix(1,0,0,1,0,0)"><svg width="395.52000000000004" viewBox="2.5900001525878906 -36.25 1272.4200439453125 36.7400016784668" height="11.421249615871936" data-palette-color="#ffffff"><path d="M25.05-9.5L25.05-9.5Q25.05-4.79 21.63-2.15 18.21 0.49 12.35 0.49L12.35 0.49Q6.01 0.49 2.59-1.15L2.59-1.15 2.59-5.15Q4.79-4.22 7.37-3.69 9.96-3.15 12.5-3.15L12.5-3.15Q16.65-3.15 18.75-4.72 20.85-6.3 20.85-9.11L20.85-9.11Q20.85-10.96 20.1-12.15 19.36-13.33 17.61-14.33 15.87-15.33 12.3-16.6L12.3-16.6Q7.32-18.38 5.19-20.83 3.05-23.27 3.05-27.2L3.05-27.2Q3.05-31.32 6.15-33.76 9.25-36.21 14.36-36.21L14.36-36.21Q19.68-36.21 24.15-34.25L24.15-34.25 22.85-30.64Q18.43-32.5 14.26-32.5L14.26-32.5Q10.96-32.5 9.11-31.08 7.25-29.66 7.25-27.15L7.25-27.15Q7.25-25.29 7.93-24.11 8.62-22.92 10.24-21.94 11.87-20.95 15.21-19.75L15.21-19.75Q20.83-17.75 22.94-15.45 25.05-13.16 25.05-9.5ZM89.16-35.69L93.31-35.69 93.31-12.6Q93.31-6.49 89.62-3 85.93 0.49 79.49 0.49L79.49 0.49Q73.04 0.49 69.51-3.03 65.99-6.54 65.99-12.7L65.99-12.7 65.99-35.69 70.14-35.69 70.14-12.4Q70.14-7.93 72.58-5.54 75.02-3.15 79.76-3.15L79.76-3.15Q84.27-3.15 86.71-5.55 89.16-7.96 89.16-12.45L89.16-12.45 89.16-35.69ZM148.36-14.84L140.91-14.84 140.91 0 136.76 0 136.76-35.69 146.55-35.69Q153.12-35.69 156.25-33.18 159.39-30.66 159.39-25.61L159.39-25.61Q159.39-18.53 152.21-16.04L152.21-16.04 161.91 0 157 0 148.36-14.84ZM140.91-32.06L140.91-18.41 146.6-18.41Q150.99-18.41 153.04-20.15 155.09-21.9 155.09-25.39L155.09-25.39Q155.09-28.93 153.01-30.49 150.92-32.06 146.3-32.06L146.3-32.06 140.91-32.06ZM213.9-12.74L222.06-35.69 226.53-35.69 213.66 0 209.56 0 196.76-35.69 201.16-35.69 209.36-12.6Q210.78-8.62 211.61-4.86L211.61-4.86Q212.49-8.81 213.9-12.74L213.9-12.74ZM269.59 0L265.44 0 265.44-35.69 269.59-35.69 269.59 0ZM325.61-12.74L333.77-35.69 338.24-35.69 325.37 0 321.27 0 308.47-35.69 312.87-35.69 321.07-12.6Q322.49-8.62 323.32-4.86L323.32-4.86Q324.2-8.81 325.61-12.74L325.61-12.74ZM403.88 0L399.58 0 395.14-11.35 380.83-11.35 376.44 0 372.24 0 386.35-35.84 389.84-35.84 403.88 0ZM382.3-15.09L393.85-15.09 389.7-26.15Q388.89-28.25 388.04-31.3L388.04-31.3Q387.5-28.96 386.5-26.15L386.5-26.15 382.3-15.09ZM462.69 0L442.79 0 442.79-35.69 446.94-35.69 446.94-3.76 462.69-3.76 462.69 0ZM569.88-9.5L569.88-9.5Q569.88-4.79 566.46-2.15 563.05 0.49 557.19 0.49L557.19 0.49Q550.84 0.49 547.42-1.15L547.42-1.15 547.42-5.15Q549.62-4.22 552.21-3.69 554.79-3.15 557.33-3.15L557.33-3.15Q561.48-3.15 563.58-4.72 565.68-6.3 565.68-9.11L565.68-9.11Q565.68-10.96 564.94-12.15 564.19-13.33 562.45-14.33 560.7-15.33 557.14-16.6L557.14-16.6Q552.16-18.38 550.02-20.83 547.89-23.27 547.89-27.2L547.89-27.2Q547.89-31.32 550.99-33.76 554.09-36.21 559.19-36.21L559.19-36.21Q564.51-36.21 568.98-34.25L568.98-34.25 567.69-30.64Q563.27-32.5 559.09-32.5L559.09-32.5Q555.8-32.5 553.94-31.08 552.08-29.66 552.08-27.15L552.08-27.15Q552.08-25.29 552.77-24.11 553.45-22.92 555.08-21.94 556.7-20.95 560.04-19.75L560.04-19.75Q565.66-17.75 567.77-15.45 569.88-13.16 569.88-9.5ZM651.89-35.69L642.34 0 638.24 0 631.04-23.9Q630.52-25.49 629.89-27.91 629.25-30.32 629.23-30.81L629.23-30.81Q628.69-27.59 627.52-23.75L627.52-23.75 620.54 0 616.44 0 606.94-35.69 611.33-35.69 616.97-13.65Q618.14-9.01 618.68-5.25L618.68-5.25Q619.34-9.72 620.64-13.99L620.64-13.99 627.03-35.69 631.43-35.69 638.14-13.79Q639.31-10.01 640.12-5.25L640.12-5.25Q640.58-8.72 641.88-13.7L641.88-13.7 647.49-35.69 651.89-35.69ZM695.63 0L691.48 0 691.48-35.69 695.63-35.69 695.63 0ZM758.57 0L755.22 0 743.11-31.64 742.92-31.64Q743.26-27.88 743.26-22.71L743.26-22.71 743.26 0 739.43 0 739.43-35.69 745.68-35.69 756.98-6.25 757.17-6.25 768.58-35.69 774.78-35.69 774.78 0 770.63 0 770.63-23Q770.63-26.95 770.97-31.59L770.97-31.59 770.77-31.59 758.57 0ZM885.46 0L865.56 0 865.56-35.69 869.71-35.69 869.71-3.76 885.46-3.76 885.46 0ZM945.42-3.71L945.42 0 925.52 0 925.52-35.69 945.42-35.69 945.42-32.01 929.67-32.01 929.67-20.51 944.47-20.51 944.47-16.85 929.67-16.85 929.67-3.71 945.42-3.71ZM1007.47-9.5L1007.47-9.5Q1007.47-4.79 1004.06-2.15 1000.64 0.49 994.78 0.49L994.78 0.49Q988.43 0.49 985.01-1.15L985.01-1.15 985.01-5.15Q987.21-4.22 989.8-3.69 992.39-3.15 994.93-3.15L994.93-3.15Q999.08-3.15 1001.18-4.72 1003.28-6.3 1003.28-9.11L1003.28-9.11Q1003.28-10.96 1002.53-12.15 1001.79-13.33 1000.04-14.33 998.29-15.33 994.73-16.6L994.73-16.6Q989.75-18.38 987.61-20.83 985.48-23.27 985.48-27.2L985.48-27.2Q985.48-31.32 988.58-33.76 991.68-36.21 996.78-36.21L996.78-36.21Q1002.1-36.21 1006.57-34.25L1006.57-34.25 1005.28-30.64Q1000.86-32.5 996.68-32.5L996.68-32.5Q993.39-32.5 991.53-31.08 989.68-29.66 989.68-27.15L989.68-27.15Q989.68-25.29 990.36-24.11 991.04-22.92 992.67-21.94 994.29-20.95 997.64-19.75L997.64-19.75Q1003.25-17.75 1005.36-15.45 1007.47-13.16 1007.47-9.5ZM1068.92-9.5L1068.92-9.5Q1068.92-4.79 1065.5-2.15 1062.08 0.49 1056.22 0.49L1056.22 0.49Q1049.88 0.49 1046.46-1.15L1046.46-1.15 1046.46-5.15Q1048.66-4.22 1051.24-3.69 1053.83-3.15 1056.37-3.15L1056.37-3.15Q1060.52-3.15 1062.62-4.72 1064.72-6.3 1064.72-9.11L1064.72-9.11Q1064.72-10.96 1063.98-12.15 1063.23-13.33 1061.49-14.33 1059.74-15.33 1056.18-16.6L1056.18-16.6Q1051.2-18.38 1049.06-20.83 1046.92-23.27 1046.92-27.2L1046.92-27.2Q1046.92-31.32 1050.02-33.76 1053.12-36.21 1058.23-36.21L1058.23-36.21Q1063.55-36.21 1068.02-34.25L1068.02-34.25 1066.72-30.64Q1062.3-32.5 1058.13-32.5L1058.13-32.5Q1054.83-32.5 1052.98-31.08 1051.12-29.66 1051.12-27.15L1051.12-27.15Q1051.12-25.29 1051.81-24.11 1052.49-22.92 1054.11-21.94 1055.74-20.95 1059.08-19.75L1059.08-19.75Q1064.7-17.75 1066.81-15.45 1068.92-13.16 1068.92-9.5ZM1141.21-17.9L1141.21-17.9Q1141.21-9.33 1136.87-4.42 1132.54 0.49 1124.82 0.49L1124.82 0.49Q1116.94 0.49 1112.65-4.33 1108.37-9.16 1108.37-17.94L1108.37-17.94Q1108.37-26.66 1112.67-31.46 1116.96-36.25 1124.87-36.25L1124.87-36.25Q1132.56-36.25 1136.88-31.37 1141.21-26.49 1141.21-17.9ZM1112.76-17.9L1112.76-17.9Q1112.76-10.64 1115.85-6.9 1118.94-3.15 1124.82-3.15L1124.82-3.15Q1130.76-3.15 1133.78-6.88 1136.81-10.62 1136.81-17.9L1136.81-17.9Q1136.81-25.1 1133.8-28.82 1130.78-32.54 1124.87-32.54L1124.87-32.54Q1118.94-32.54 1115.85-28.8 1112.76-25.05 1112.76-17.9ZM1211.05-35.69L1211.05 0 1206.31 0 1186.81-29.96 1186.61-29.96Q1187-24.68 1187-20.29L1187-20.29 1187 0 1183.17 0 1183.17-35.69 1187.86-35.69 1207.31-5.86 1207.51-5.86Q1207.46-6.52 1207.29-10.1 1207.12-13.67 1207.17-15.21L1207.17-15.21 1207.17-35.69 1211.05-35.69ZM1275.01-9.5L1275.01-9.5Q1275.01-4.79 1271.59-2.15 1268.17 0.49 1262.32 0.49L1262.32 0.49Q1255.97 0.49 1252.55-1.15L1252.55-1.15 1252.55-5.15Q1254.75-4.22 1257.33-3.69 1259.92-3.15 1262.46-3.15L1262.46-3.15Q1266.61-3.15 1268.71-4.72 1270.81-6.3 1270.81-9.11L1270.81-9.11Q1270.81-10.96 1270.07-12.15 1269.32-13.33 1267.58-14.33 1265.83-15.33 1262.27-16.6L1262.27-16.6Q1257.29-18.38 1255.15-20.83 1253.01-23.27 1253.01-27.2L1253.01-27.2Q1253.01-31.32 1256.11-33.76 1259.21-36.21 1264.32-36.21L1264.32-36.21Q1269.64-36.21 1274.11-34.25L1274.11-34.25 1272.81-30.64Q1268.39-32.5 1264.22-32.5L1264.22-32.5Q1260.92-32.5 1259.07-31.08 1257.21-29.66 1257.21-27.15L1257.21-27.15Q1257.21-25.29 1257.9-24.11 1258.58-22.92 1260.2-21.94 1261.83-20.95 1265.17-19.75L1265.17-19.75Q1270.79-17.75 1272.9-15.45 1275.01-13.16 1275.01-9.5Z" opacity="1" transform="matrix(1,0,0,1,0,0)" fill="#ffffff" class="slogan-text-1" data-fill-palette-color="secondary" id="text-1"></path></svg></g></svg></g></svg></g></svg></g><g transform="matrix(1,0,0,1,146.857620214336,0)"><svg viewBox="0 0 103.78235957132796 47.35444200237213" height="47.35444200237213" width="103.78235957132796"><g><svg xmlns="http://www.w3.org/2000/svg" xmlns:xlink="http://www.w3.org/1999/xlink" version="1.1" x="8" y="0" viewBox="3.4719996452331543 19.49058723449707 84.072998046875 45.353416442871094" enable-background="new 0 0 90 90" xml:space="preserve" height="47.35444200237213" width="87.78235957132796" class="icon-icon-0" data-fill-palette-color="accent" id="icon-0"><g fill="#ffffff" data-fill-palette-color="accent"><path fill-rule="evenodd" clip-rule="evenodd" d="M87.545 36.916c0 3.703-1.313 6.868-3.939 9.494-2.622 2.62-5.779 3.931-9.478 3.931-3.72 0-6.894-1.311-9.521-3.931-2.603-2.626-3.905-5.792-3.905-9.494 0-3.709 1.303-6.877 3.905-9.503 2.627-2.61 5.801-3.914 9.521-3.914 3.698 0 6.855 1.304 9.478 3.914C86.231 30.039 87.545 33.207 87.545 36.916zM60.958 60.861c-0.347 0.666-0.809 1.284-1.384 1.854-1.418 1.418-3.128 2.129-5.128 2.129-1.994 0-3.702-0.711-5.127-2.129-0.575-0.569-1.037-1.188-1.385-1.854v-0.019c-0.302-0.592-0.507-1.218-0.615-1.88-0.096-0.5-0.339-0.916-0.727-1.246-0.393-0.342-0.842-0.516-1.351-0.521-0.512-0.007-0.968 0.156-1.367 0.487-0.404 0.313-0.655 0.724-0.751 1.23-0.137 0.689-0.359 1.344-0.667 1.965l0.009-0.035c-0.353 0.674-0.818 1.297-1.394 1.872-1.418 1.418-3.127 2.129-5.127 2.129-2.005 0-3.717-0.711-5.136-2.129-0.57-0.569-1.02-1.182-1.351-1.837l-0.025-0.035c-0.308-0.592-0.512-1.218-0.615-1.88-0.097-0.513-0.339-0.934-0.726-1.264-0.399-0.33-0.852-0.498-1.358-0.504-0.519-0.007-0.978 0.156-1.376 0.487-0.399 0.324-0.644 0.736-0.735 1.238-0.137 0.678-0.356 1.32-0.658 1.922-0.005 0-0.008 0.008-0.008 0.019-0.348 0.666-0.81 1.284-1.385 1.854v0.009c-1.413 1.413-3.122 2.12-5.127 2.12-1.521 0.005-2.868-0.401-4.042-1.222-0.068-0.046-0.137-0.094-0.206-0.146 0.103-0.13 0.217-0.259 0.342-0.384 1.128-1.187 1.943-1.994 2.444-2.427L38.27 40.616l-8.383-8.212L12.641 49.675c-1.054 1.036-2.324 1.556-3.811 1.556-1.476 0-2.738-0.52-3.786-1.556-1.048-1.06-1.572-2.334-1.572-3.819 0-1.471 0.524-2.73 1.572-3.778l21.014-21.014c1.037-1.042 2.293-1.566 3.769-1.573 1.47-0.017 2.729 0.493 3.777 1.53l16.168 15.835c0.03 0.034 0.061 0.065 0.095 0.094 0.022 0.017 0.047 0.037 0.068 0.06l26.586 26.039c0.182 0.177 0.35 0.364 0.505 0.563-0.075 0.046-0.146 0.094-0.214 0.146l0.008-0.009c-1.146 0.734-2.438 1.099-3.879 1.094-2.001 0-3.709-0.711-5.128-2.129-0.57-0.569-1.025-1.188-1.368-1.854l-0.017-0.019c-0.308-0.592-0.517-1.218-0.624-1.88-0.091-0.513-0.336-0.934-0.734-1.264-0.395-0.337-0.846-0.504-1.359-0.504-0.512 0-0.968 0.165-1.367 0.495-0.404 0.33-0.652 0.75-0.744 1.257-0.119 0.667-0.329 1.299-0.632 1.896C60.962 60.843 60.958 60.851 60.958 60.861z" fill="#ffffff" data-fill-palette-color="accent"></path></g></svg></g></svg></g><g><rect width="70.32450021433601" height="1.6666344289464967" y="44.68780757342564" x="250.63997978566397" fill="#ffffff" data-fill-palette-color="secondary"></rect><rect width="70.32450021433601" height="1.6666344289464967" y="44.68780757342564" x="76.53312" fill="#ffffff" data-fill-palette-color="secondary"></rect></g></svg></g><defs></defs></svg><rect width="395.52" height="91.55429307505428" fill="none" stroke="none" visibility="hidden"></rect></g></svg></g></svg>